<svg width="30" height="30" viewBox="0 0 30 30" fill="none" xmlns="http://www.w3.org/2000/svg">
  <rect width="30" height="30" rx="15" fill="#374151"/>
  <path d="M15 8C11.13 8 8 11.13 8 15C8 18.87 11.13 22 15 22C18.87 22 22 18.87 22 15C22 11.13 18.87 8 15 8ZM15 20C12.24 20 10 17.76 10 15C10 12.24 12.24 10 15 10C17.76 10 20 12.24 20 15C20 17.76 17.76 20 15 20Z" fill="#9CA3AF"/>
  <path d="M15 12C13.34 12 12 13.34 12 15C12 16.66 13.34 18 15 18C16.66 18 18 16.66 18 15C18 13.34 16.66 12 15 12ZM15 16C14.45 16 14 15.55 14 15C14 14.45 14.45 14 15 14C15.55 14 16 14.45 16 15C16 15.55 15.55 16 15 16Z" fill="#9CA3AF"/>
</svg> 