<svg width="524" height="76" viewBox="0 0 524 76" fill="none" xmlns="http://www.w3.org/2000/svg">
<g clip-path="url(#clip0_216_292)">
<path d="M84.8485 60.095L70.7512 75.2128C70.4488 75.5529 70.0709 75.8175 69.6552 75.9687C69.2394 76.1576 68.8237 76.2332 68.3701 76.2332H68.3324H1.58738C1.28502 76.2332 0.982664 76.1199 0.718103 75.9687C0.453542 75.7797 0.226776 75.5529 0.113392 75.2506C8.94303e-06 74.9482 -0.0377855 74.6459 8.94303e-06 74.3057C0.0378034 74.0034 0.188981 73.701 0.415748 73.4742L14.4753 58.3565C14.7776 58.0163 15.1556 57.7518 15.5713 57.6006C15.9871 57.4116 16.4406 57.336 16.8563 57.336H83.6013C83.9037 57.336 84.2438 57.4116 84.5084 57.6006C84.7729 57.7896 84.9997 58.0163 85.1131 58.3187C85.2265 58.621 85.3021 58.9234 85.2265 59.2635C85.1887 59.5659 85.0375 59.8682 84.8107 60.095H84.8485ZM70.7512 29.6705C70.4488 29.3303 70.0709 29.0658 69.6552 28.9146C69.2394 28.7256 68.7859 28.65 68.3701 28.65H1.62517C1.32281 28.65 0.982664 28.7256 0.718103 28.9146C0.453542 29.1036 0.226776 29.3303 0.113392 29.6327C8.94303e-06 29.9351 -0.0377855 30.2374 8.94303e-06 30.5776C0.0378034 30.8799 0.188981 31.1823 0.415748 31.409L14.4753 46.5268C14.7776 46.867 15.1556 47.1315 15.5713 47.2827C15.9871 47.4717 16.4406 47.5473 16.8563 47.5473H83.6013C83.9037 47.5473 84.2438 47.4339 84.5084 47.2827C84.7729 47.0937 84.9997 46.867 85.1131 46.5646C85.2265 46.2622 85.2643 45.9599 85.2265 45.6197C85.1887 45.3174 85.0375 45.015 84.8107 44.7883L70.7512 29.6705ZM1.62517 18.8235H68.3701C68.8237 18.8235 69.2772 18.7479 69.6552 18.5589C70.0709 18.37 70.4488 18.1054 70.7512 17.803L84.8485 2.68526C85.0753 2.4585 85.2265 2.15614 85.2643 1.85379C85.3021 1.55143 85.2643 1.21128 85.1509 0.908925C85.0375 0.606569 84.8107 0.379803 84.5462 0.190831C84.2816 0.0396528 84.017 -0.0737305 83.7147 -0.0737305H83.6391H16.8941H16.8563C16.4028 -0.0737305 15.9871 0.0396528 15.5713 0.190831C15.1556 0.379803 14.7776 0.644364 14.4753 0.946719L0.415748 16.0645C0.188981 16.2913 0.0378034 16.5936 8.94303e-06 16.896C-0.0377855 17.1983 8.94303e-06 17.5385 0.113392 17.8408C0.226776 18.1432 0.453542 18.37 0.718103 18.5589C0.982664 18.7479 1.28502 18.8235 1.62517 18.8235Z" fill="url(#paint0_linear_216_292)"/>
<path d="M166.258 32.1463H130.542V20.3923H175.555V8.63818H130.429C128.879 8.63818 127.367 8.94054 125.931 9.50746C124.495 10.0744 123.21 10.9436 122.114 12.0397C121.018 13.1357 120.149 14.4207 119.544 15.8191C118.939 17.2553 118.637 18.7671 118.637 20.3167V32.2219C118.637 33.7715 118.939 35.2833 119.544 36.7195C120.149 38.1556 121.018 39.4406 122.114 40.5367C123.21 41.6327 124.495 42.4642 125.931 43.0689C127.367 43.6358 128.879 43.9382 130.429 43.9382H166.182V55.6923H119.468V67.4463H166.258C167.807 67.4463 169.319 67.144 170.755 66.5771C172.191 66.0101 173.476 65.1409 174.573 64.0448C175.669 62.9488 176.538 61.6638 177.143 60.2654C177.747 58.8292 178.05 57.3174 178.05 55.7678V43.8626C178.05 42.313 177.747 40.8012 177.143 39.3651C176.538 37.9289 175.669 36.6439 174.573 35.5478C173.476 34.4518 172.191 33.6203 170.755 33.0156C169.319 32.4487 167.807 32.1463 166.258 32.1463Z" fill="white"/>
<path d="M235.708 8.63818H199.841C198.292 8.63818 196.78 8.90274 195.344 9.50746C193.908 10.0744 192.623 10.9436 191.527 12.0397C190.431 13.1357 189.561 14.4207 188.957 15.8191C188.352 17.2553 188.05 18.7671 188.05 20.3167V55.7678C188.05 57.3174 188.39 58.8292 188.957 60.2654C189.561 61.7016 190.431 62.9866 191.527 64.0448C192.623 65.1409 193.946 65.9723 195.344 66.5771C196.78 67.144 198.292 67.4463 199.841 67.4463H235.708C237.258 67.4463 238.77 67.144 240.206 66.5771C241.642 66.0101 242.927 65.1409 244.023 64.0448C245.119 62.9488 245.988 61.6638 246.593 60.2654C247.198 58.8292 247.5 57.3174 247.5 55.7678V20.3167C247.5 18.7671 247.198 17.2553 246.593 15.8191C245.988 14.3829 245.119 13.0979 244.023 12.0397C242.927 10.9436 241.642 10.1122 240.206 9.50746C238.77 8.94054 237.258 8.63818 235.708 8.63818ZM235.633 55.6923H199.955V20.3923H235.595V55.6923H235.633Z" fill="white"/>
<path d="M305.121 32.1463H269.406V20.3923H314.419V8.63818H269.292C267.743 8.63818 266.231 8.94054 264.795 9.50746C263.358 10.0744 262.073 10.9436 260.977 12.0397C259.881 13.1357 259.012 14.4207 258.407 15.8191C257.803 17.2553 257.5 18.7671 257.5 20.3167V32.2219C257.5 33.7715 257.803 35.2833 258.407 36.7195C259.012 38.1556 259.881 39.4406 260.977 40.5367C262.073 41.6327 263.358 42.4642 264.795 43.0689C266.231 43.6358 267.743 43.9382 269.292 43.9382H305.046V55.6923H258.332V67.4463H305.121C306.671 67.4463 308.183 67.144 309.619 66.5771C311.055 66.0101 312.34 65.1409 313.436 64.0448C314.532 62.9488 315.401 61.6638 316.006 60.2654C316.611 58.8292 316.913 57.3174 316.913 55.7678V43.8626C316.913 42.313 316.611 40.8012 316.006 39.3651C315.401 37.9289 314.532 36.6439 313.436 35.5478C312.34 34.4518 311.055 33.6203 309.619 33.0156C308.183 32.4487 306.671 32.1463 305.121 32.1463Z" fill="white"/>
<path d="M373.665 8.63939H338.705C337.155 8.63939 335.644 8.94175 334.207 9.50867C332.771 10.0756 331.486 10.9449 330.39 12.0409C329.294 13.1369 328.425 14.4219 327.82 15.8203C327.215 17.2565 326.913 18.7683 326.913 20.3179V67.4475H338.818V48.1346H373.627V67.4475H385.532V20.3179C385.532 18.7683 385.192 17.2565 384.625 15.8203C384.021 14.3841 383.151 13.0991 382.055 12.0031C380.959 10.9071 379.636 10.0756 378.2 9.47087C376.764 8.90395 375.214 8.6016 373.665 8.63939ZM373.589 36.3805H338.781V20.4313H373.589V36.3805Z" fill="white"/>
<path d="M443.002 55.711H438.24L421.195 13.608C420.628 12.1718 419.607 10.9246 418.322 10.0175C417.037 9.14826 415.488 8.65694 413.938 8.65694H403.356C402.335 8.65694 401.315 8.84591 400.37 9.22385C399.425 9.6018 398.556 10.1687 397.838 10.9246C397.12 11.6427 396.515 12.512 396.137 13.4568C395.721 14.4017 395.532 15.4221 395.532 16.4426V67.4651H407.438V20.411H412.2L429.245 62.514C429.85 63.9502 430.87 65.1974 432.155 66.0667C433.44 66.936 434.99 67.3895 436.539 67.3895H447.122C448.142 67.3895 449.163 67.2005 450.107 66.8226C451.052 66.4446 451.922 65.8777 452.64 65.1218C453.358 64.4037 453.962 63.5345 454.34 62.5896C454.756 61.6447 454.945 60.6243 454.945 59.6038V8.61914H443.002V55.6732V55.711Z" fill="white"/>
<path d="M511.697 8.63818H476.737C475.187 8.63818 473.676 8.94054 472.239 9.50746C470.803 10.0744 469.518 10.9436 468.422 12.0397C467.326 13.1357 466.457 14.4207 465.852 15.8191C465.248 17.2553 464.945 18.7671 464.945 20.3167V67.4463H476.85V48.1334H511.583V67.4463H523.489V20.3167C523.489 18.7671 523.186 17.2553 522.582 15.8191C521.977 14.3829 521.108 13.0979 520.012 12.0397C518.916 10.9436 517.631 10.1122 516.194 9.50746C514.758 8.94054 513.246 8.63818 511.697 8.63818ZM511.583 36.3793H476.775V20.43H511.583V36.3793Z" fill="white"/>
</g>
<defs>
<linearGradient id="paint0_linear_216_292" x1="7.93986" y1="77.2155" x2="77.366" y2="-1.05373" gradientUnits="userSpaceOnUse">
<stop stop-color="#9944FF"/>
<stop offset="0.0784314" stop-color="#9944FF"/>
<stop offset="0.301961" stop-color="#8752F2"/>
<stop offset="0.501961" stop-color="#5497D4"/>
<stop offset="0.6" stop-color="#42B3CA"/>
<stop offset="0.721569" stop-color="#28DFB8"/>
<stop offset="0.968627" stop-color="#18FB9A"/>
<stop offset="1" stop-color="#18FB9A"/>
</linearGradient>
<clipPath id="clip0_216_292">
<rect width="524" height="76" fill="white"/>
</clipPath>
</defs>
</svg>
